<svg xmlns="http://www.w3.org/2000/svg" viewBox="0 0 32 32">
  <!-- Fundo arredondado terra cotta -->
  <rect width="32" height="32" rx="8" fill="#B5714B"/>

  <!-- Telhado -->
  <polygon points="16,4 29,14 3,14" fill="#FAF6F0"/>

  <!-- Chaminé -->
  <rect x="20" y="6" width="3" height="7" rx="1" fill="#FAF6F0"/>
  <!-- Fumacinha -->
  <circle cx="21.5" cy="5" r="1.2" fill="#F2EAE0" opacity="0.6"/>

  <!-- Parede -->
  <rect x="5" y="14" width="22" height="13" rx="1" fill="#F2EAE0"/>

  <!-- Porta -->
  <rect x="13" y="19" width="6" height="8" rx="1.5" fill="#B5714B"/>
  <!-- Maçaneta -->
  <circle cx="17.5" cy="23.5" r="0.7" fill="#FAF6F0"/>

  <!-- Janela esquerda -->
  <rect x="7" y="16.5" width="4.5" height="4" rx="0.8" fill="#7A9E7E"/>
  <!-- Cruz da janela -->
  <line x1="9.25" y1="16.5" x2="9.25" y2="20.5" stroke="#F2EAE0" stroke-width="0.5"/>
  <line x1="7" y1="18.5" x2="11.5" y2="18.5" stroke="#F2EAE0" stroke-width="0.5"/>

  <!-- Janela direita -->
  <rect x="20.5" y="16.5" width="4.5" height="4" rx="0.8" fill="#7A9E7E"/>
  <!-- Cruz da janela -->
  <line x1="22.75" y1="16.5" x2="22.75" y2="20.5" stroke="#F2EAE0" stroke-width="0.5"/>
  <line x1="20.5" y1="18.5" x2="25" y2="18.5" stroke="#F2EAE0" stroke-width="0.5"/>

  <!-- Coração na porta -->
  <path d="M16,25.5 C16,25.5 14.2,23.8 14.2,22.8 C14.2,22 15,21.6 16,22.7 C17,21.6 17.8,22 17.8,22.8 C17.8,23.8 16,25.5 16,25.5Z" fill="#FAF6F0"/>
</svg>
